PathFileType	4	(X/Y/Z)	C:/Users/beibeiliu/ov580/test_trc/User2\sequence.18_training_dense_left.trc
DataRate	CameraRate	NumFrames	NumMarkers	Units	OrigDataRate	OrigDataStartFrame	OrigNumFrames
120	120	7	19	mm	120	161	429
Frame#	Time	ThumbCMC			ThumbMCP			ThumbIP			ThumbTip			IndexMCP			IndexPIP			IndexTip			MiddleMCP			MiddlePIP			MiddleTip			RingMCP			RingPIP			RingTip			PinkyMCP			PinkyPIP			PinkyTip			BackHand1			BackHand2			BackHand3	
		X0	Y0	Z0	X1	Y1	Z1	X2	Y2	Z2	X3	Y3	Z3	X4	Y4	Z4	X5	Y5	Z5	X6	Y6	Z6	X7	Y7	Z7	X8	Y8	Z8	X9	Y9	Z9	X10	Y10	Z10	X11	Y11	Z11	X12	Y12	Z12	X13	Y13	Z13	X14	Y14	Z14	X15	Y15	Z15	X16	Y16	Z16	X17	Y17	Z17	X18	Y18	Z18	
160	1.33333	-180.246	-27.0426	35.8811	-175.517	-33.2376	1.4982	-182.072	-38.9194	-34.6798	-198.801	-43.3092	-59.0145	-217.19	-15.7748	-43.2961	-219.934	-45.5321	-55.4941	-207.739	-56.436	-20.2736	-238.514	-17.4798	-44.2958	-239.704	-51.8184	-50.4059	-225.427	-56.489	-11.0318	-257.886	-17.2585	-31.2437	-258.576	-49.8043	-43.8417	-243.547	-57.8977	-14.999	-272.74	-19.8639	-10.2924	-271.893	-46.413	-34.3023	-253.429	-64.789	-13.2345	-243.531	0.27024	23.5839	-234	1.61631	57.6369	-205.311	4.62228	33.1877	
161	1.34167	-177.711	-25.8664	36.5956	-169.72	-34.5874	1.58645	-180.277	-40.5425	-32.4818	-193.363	-46.2884	-56.1209	-209.937	-18.6356	-41.8223	-214.277	-48.0822	-54.894	-205.398	-57.7033	-17.6896	-235.986	-20.4308	-39.2709	-237.975	-55.5769	-47.9778	-223.407	-61.1136	-9.95464	-257.116	-21.8181	-33.3587	-252.005	-50.2357	-44.2329	-238.969	-59.8265	-10.0032	-268.986	-23.2849	-8.73508	-266.983	-45.7283	-33.0329	-254.634	-68.7619	-12.5788	-243.383	-2.54618	24.3799	-237.734	0.978615	57.0337	-208.113	3.3684	32.3706	
162	1.35	-175.295	-24.0876	37.1236	-167.204	-34.2618	3.39781	-171.664	-44.1452	-28.893	-186.627	-50.7528	-49.9677	-205.068	-21.4041	-41.7645	-210.424	-55.3015	-47.456	-198.798	-57.8966	-12.4571	-231.516	-25.1026	-42.2657	-227.103	-61.7413	-45.8143	-214.664	-64.0247	-8.7928	-249.506	-28.0837	-35.2408	-247.878	-56.042	-41.2015	-233.355	-64.5125	-9.56901	-265.544	-25.8311	-12.0472	-264.482	-53.2138	-32.0724	-246.404	-72.8887	-7.80222	-240.524	-3.58971	26.4196	-233.943	1.74259	56.0997	-200.274	3.9788	34.0006	
163	1.35833	-169.397	-23.8211	38.0362	-161.997	-36.9522	10.1859	-168.175	-48.5647	-28.0295	-180.169	-58.9631	-46.3342	-199.867	-27.103	-39.2619	-202.043	-59.2442	-42.7579	-192.478	-57.8828	-9.03087	-223.161	-30.0168	-40.4633	-223.188	-64.137	-43.4534	-208.03	-67.4653	-6.47466	-244.636	-32.0582	-29.995	-239.413	-60.5689	-40.7343	-222.505	-66.823	-6.71143	-257.263	-31.8983	-9.76321	-254.78	-56.9866	-30.992	-241.044	-75.2753	-9.7247	-237.738	-4.56481	27.6485	-227.975	1.14268	58.6952	-197.092	2.53916	36.1769	
164	1.36667	-167.181	-23.6283	40.3404	-156.898	-40.3489	13.8008	-164.257	-55.3694	-19.1993	-176.444	-67.5367	-40.2285	-191.592	-31.9668	-38.9563	-189.582	-63.0822	-38.7824	-185.33	-55.9386	-5.23735	-215.147	-33.5393	-37.3241	-212.698	-70.4854	-38.6138	-201.754	-67.7398	0.853111	-237.573	-38.5368	-29.7988	-233.343	-68.9083	-36.5713	-215.79	-71.8809	-5.66608	-253.986	-38.3086	-7.44866	-244.305	-63.7276	-28.8686	-226.878	-79.0137	-4.7956	-234.36	-10.2121	28.2055	-230.198	-0.801612	61.1243	-196.84	2.80382	33.2178	
165	1.375	-161.68	-22.6936	41.903	-152.838	-42.7082	17.4569	-158.48	-63.1484	-14.3837	-177.098	-76.301	-29.2314	-184.658	-32.7769	-34.3164	-184.289	-65.844	-33.5008	-180.863	-55.2754	-0.651545	-211.587	-41.1845	-36.0281	-202.913	-76.8273	-33.7414	-190.857	-70.657	2.73085	-227.751	-44.9188	-30.0341	-220.085	-75.7495	-32.8548	-206.852	-75.3335	-1.0101	-245.102	-43.6341	-10.0775	-241.406	-71.1534	-26.8018	-221.788	-82.5099	-3.61742	-232.952	-11.79	27.4026	-226.847	-1.23758	56.0202	-198.077	2.05544	34.5517	
166	1.38333	-156.423	-21.7138	45.0551	-143.026	-43.933	21.2226	-148.122	-67.313	-9.32586	-174.288	-79.3947	-16.6125	-178.937	-35.1705	-31.3492	-175.433	-68.105	-34.1043	-168.462	-58.8985	1.43743	-203.188	-47.0928	-36.7362	-193.909	-81.0751	-30.7696	-185.94	-73.1833	7.9915	-226.036	-51.6261	-26.3849	-212.469	-80.1784	-29.7862	-203.508	-79.9587	4.60133	-242.385	-51.8079	-9.88723	-228.029	-77.7592	-22.3303	-214.612	-89.6582	2.88863	-229.919	-15.1562	27.6269	-223.269	-3.1219	57.2614	-190.459	-0.266156	33.0872	
